2.2Hzlow3min_grf.mot
version=1
nRows=25
nColumns 19
inDegrees=yes
endheader
time	1_ground_force_vx	1_ground_force_vy	1_ground_force_vz	1_ground_force_px	1_ground_force_py	1_ground_force_pz	1_ground_torque_x	1_ground_torque_y	1_ground_torque_z	2_ground_force_vx	2_ground_force_vy	2_ground_force_vz	2_ground_force_px	2_ground_force_py	2_ground_force_pz	2_ground_torque_x	2_ground_torque_y	2_ground_torque_z
            1.253500	          -35.795853	         1392.401803	         -128.623404	           -0.215829	            0.006228	           -0.405701	           -0.261746	           10.181511	           -0.940519	           -0.453060	         1084.486889	          100.118828	           -0.215822	            0.005632	           -0.677359	            0.005055	          -12.099207	           -1.116988
            1.254000	          -38.960169	         1389.339717	         -129.316520	           -0.215379	            0.006228	           -0.405732	           -0.280960	           10.019181	           -0.932562	           -2.333565	         1086.499204	          101.957041	           -0.215467	            0.005634	           -0.677666	            0.025663	          -11.948759	           -1.121271
            1.254500	          -41.849864	         1386.819039	         -130.145572	           -0.214974	            0.006227	           -0.405423	           -0.299766	            9.933618	           -0.932217	           -4.391232	         1085.746495	          104.395551	           -0.215194	            0.005635	           -0.677712	            0.047207	          -11.672100	           -1.122283
            1.255000	          -44.647712	         1383.397021	         -130.978747	           -0.214547	            0.006227	           -0.405484	           -0.320377	            9.926785	           -0.939859	           -6.170603	         1085.732535	          106.508080	           -0.214842	            0.005637	           -0.677868	            0.065264	          -11.483323	           -1.126490
            1.255500	          -47.948985	         1380.333680	         -131.442248	           -0.214129	            0.006227	           -0.405496	           -0.343255	            9.881470	           -0.940963	           -8.282219	         1086.824868	          107.920762	           -0.214572	            0.005639	           -0.678145	            0.085839	          -11.264077	           -1.118513
            1.256000	          -50.791972	         1377.451043	         -131.951980	           -0.213834	            0.006227	           -0.405405	           -0.363272	            9.851740	           -0.943741	           -9.685728	         1086.446034	          109.421745	           -0.214215	            0.005641	           -0.678149	            0.099331	          -11.141959	           -1.122166
            1.256500	          -53.313744	         1375.288866	         -132.275977	           -0.213454	            0.006226	           -0.405224	           -0.374626	            9.663894	           -0.929478	          -11.836075	         1085.327094	          111.155051	           -0.213820	            0.005642	           -0.678128	            0.118800	          -10.893569	           -1.115678
            1.257000	          -55.330407	         1372.944992	         -132.281020	           -0.213067	            0.006226	           -0.405146	           -0.383839	            9.524419	           -0.917662	          -13.756283	         1085.314970	          112.610647	           -0.213443	            0.005643	           -0.678164	            0.135589	          -10.697418	           -1.109948
            1.257500	          -57.072201	         1369.159832	         -132.476368	           -0.212803	            0.006226	           -0.405261	           -0.396116	            9.502804	           -0.919467	          -15.581401	         1084.934523	          114.205666	           -0.213016	            0.005646	           -0.678373	            0.151873	          -10.574909	           -1.113168
            1.258000	          -58.998420	         1367.358708	         -132.937870	           -0.212423	            0.006226	           -0.405126	           -0.407972	            9.455244	           -0.919261	          -17.220263	         1084.921405	          116.224264	           -0.212751	            0.005647	           -0.678498	            0.165594	          -10.432880	           -1.117642
            1.258500	          -60.189516	         1365.374800	         -132.759976	           -0.212145	            0.006226	           -0.405060	           -0.421843	            9.569326	           -0.930458	          -18.953921	         1085.095544	          117.258076	           -0.212456	            0.005649	           -0.678668	            0.178132	          -10.197888	           -1.102009
            1.259000	          -61.885997	         1363.212586	         -133.040184	           -0.211815	            0.006225	           -0.404891	           -0.435685	            9.597190	           -0.936620	          -20.495303	         1083.979472	          118.803426	           -0.212107	            0.005650	           -0.678638	            0.189619	          -10.028811	           -1.099151
            1.259500	          -63.260010	         1361.227855	         -132.678426	           -0.211526	            0.006224	           -0.404746	           -0.443960	            9.553135	           -0.931141	          -22.227548	         1083.784782	          120.023637	           -0.211865	            0.005651	           -0.678755	            0.202622	           -9.879578	           -1.094113
            1.260000	          -64.588979	         1357.982952	         -132.734907	           -0.211205	            0.006225	           -0.404805	           -0.448276	            9.425011	           -0.921240	          -23.726416	         1083.776691	          120.775125	           -0.211472	            0.005653	           -0.678866	            0.213427	           -9.748942	           -1.086414
            1.260500	          -65.917863	         1356.179584	         -132.647603	           -0.210977	            0.006224	           -0.404699	           -0.451823	            9.295711	           -0.909211	          -25.315393	         1082.845444	          122.133424	           -0.211280	            0.005654	           -0.678931	            0.224972	           -9.622991	           -1.085371
            1.261000	          -66.604418	         1353.294217	         -132.428988	           -0.210718	            0.006225	           -0.404764	           -0.454816	            9.241130	           -0.904307	          -27.003551	         1083.388078	          123.121610	           -0.210777	            0.005657	           -0.679242	            0.236227	           -9.477487	           -1.077069
            1.261500	          -66.603879	         1352.212094	         -132.296054	           -0.210401	            0.006224	           -0.404704	           -0.459747	            9.333920	           -0.913201	          -28.263416	         1082.090950	          124.103031	           -0.210456	            0.005657	           -0.679085	            0.244979	           -9.379256	           -1.075690
            1.262000	          -67.244564	         1348.605749	         -132.126513	           -0.210102	            0.006225	           -0.404744	           -0.469247	            9.410858	           -0.922007	          -29.623061	         1082.451770	          124.855773	           -0.210251	            0.005659	           -0.679322	            0.251524	           -9.190892	           -1.060127
            1.262500	          -67.473193	         1347.883977	         -131.945596	           -0.209987	            0.006224	           -0.404588	           -0.479042	            9.569631	           -0.936780	          -30.741046	         1080.786990	          125.835836	           -0.209908	            0.005660	           -0.679357	            0.257660	           -9.058762	           -1.054710
            1.263000	          -67.563449	         1346.259450	         -131.493774	           -0.209731	            0.006224	           -0.404516	           -0.476737	            9.499382	           -0.927837	          -32.006892	         1081.147067	          126.823170	           -0.209659	            0.005662	           -0.679576	            0.264942	           -8.949351	           -1.049797
            1.263500	          -67.928656	         1342.832789	         -131.140703	           -0.209563	            0.006224	           -0.404592	           -0.476310	            9.415828	           -0.919547	          -32.708851	         1080.959446	          127.104381	           -0.209432	            0.005663	           -0.679598	            0.269078	           -8.892459	           -1.045618
            1.264000	          -68.202602	         1341.749630	         -130.777810	           -0.209410	            0.006224	           -0.404544	           -0.471377	            9.273404	           -0.903861	          -33.692474	         1080.954053	          127.621016	           -0.209135	            0.005664	           -0.679713	            0.276341	           -8.865832	           -1.046730
            1.264500	          -67.834340	         1339.043855	         -130.377631	           -0.209082	            0.006224	           -0.404539	           -0.471278	            9.302986	           -0.905797	          -34.951897	         1079.474686	          128.085579	           -0.208839	            0.005666	           -0.679776	            0.281117	           -8.682178	           -1.030188
            1.265000	          -67.237646	         1338.141872	         -130.153668	           -0.208969	            0.006223	           -0.404408	           -0.472338	            9.400309	           -0.914316	          -36.073450	         1078.732313	          128.505773	           -0.208617	            0.005666	           -0.679700	            0.287954	           -8.610916	           -1.025790
            1.265500	          -67.236487	         1336.157360	         -129.841192	           -0.208853	            0.006224	           -0.404443	           -0.479500	            9.528870	           -0.925969	          -36.727113	         1078.175697	          129.067219	           -0.208329	            0.005668	           -0.679758	            0.290523	           -8.528702	           -1.020961
